<svg width="24" height="27" viewBox="0 0 24 27" fill="none" xmlns="http://www.w3.org/2000/svg">
<path d="M21.3333 6.42857H18.6667C18.6667 2.82857 15.7333 0 12 0C8.26667 0 5.33333 2.82857 5.33333 6.42857H2.66667C1.2 6.42857 0 7.58571 0 9V24.4286C0 25.8429 1.2 27 2.66667 27H21.3333C22.8 27 24 25.8429 24 24.4286V9C24 7.58571 22.8 6.42857 21.3333 6.42857ZM12 2.57143C14.2667 2.57143 16 4.24286 16 6.42857H8C8 4.24286 9.73333 2.57143 12 2.57143ZM21.3333 24.4286H2.66667V9H21.3333V24.4286ZM12 14.1429C9.73333 14.1429 8 12.4714 8 10.2857H5.33333C5.33333 13.8857 8.26667 16.7143 12 16.7143C15.7333 16.7143 18.6667 13.8857 18.6667 10.2857H16C16 12.4714 14.2667 14.1429 12 14.1429Z" fill="black"/>
</svg>
