<svg width="17" height="18" viewBox="0 0 17 18" fill="none" xmlns="http://www.w3.org/2000/svg">
<path d="M9.23321 5.5465C9.90107 5.5465 10.5416 5.82765 11.0138 6.32811C11.4861 6.82857 11.7514 7.50734 11.7514 8.2151C11.7514 8.45102 11.8398 8.67728 11.9972 8.8441C12.1546 9.01092 12.3681 9.10463 12.5907 9.10463C12.8134 9.10463 13.0269 9.01092 13.1843 8.8441C13.3417 8.67728 13.4301 8.45102 13.4301 8.2151C13.4301 7.0355 12.988 5.90422 12.2009 5.07012C11.4138 4.23602 10.3463 3.76743 9.23321 3.76743C9.01059 3.76743 8.79709 3.86114 8.63968 4.02796C8.48226 4.19478 8.39383 4.42104 8.39383 4.65696C8.39383 4.89288 8.48226 5.11914 8.63968 5.28596C8.79709 5.45278 9.01059 5.5465 9.23321 5.5465Z" fill="#E2E2E2"/>
<path d="M9.23321 1.98836C10.7915 1.98836 12.286 2.64439 13.3879 3.81213C14.4899 4.97987 15.1089 6.56367 15.1089 8.2151C15.1089 8.45102 15.1973 8.67728 15.3547 8.8441C15.5122 9.01092 15.7257 9.10464 15.9483 9.10464C16.1709 9.10464 16.3844 9.01092 16.5418 8.8441C16.6992 8.67728 16.7877 8.45102 16.7877 8.2151C16.7877 6.09183 15.9917 4.05552 14.575 2.55414C13.1583 1.05276 11.2368 0.20929 9.23321 0.20929C9.0106 0.20929 8.7971 0.303008 8.63968 0.469828C8.48227 0.636648 8.39383 0.862905 8.39383 1.09882C8.39383 1.33474 8.48227 1.561 8.63968 1.72782C8.7971 1.89464 9.0106 1.98836 9.23321 1.98836ZM16.5778 12.5827C16.5316 12.4399 16.4519 12.3119 16.3462 12.2108C16.2405 12.1096 16.1122 12.0386 15.9735 12.0045L10.9372 10.7859C10.8005 10.753 10.6582 10.757 10.5233 10.7974C10.3884 10.8378 10.2652 10.9133 10.1649 11.0171C10.0474 11.1328 10.039 11.1417 9.49342 12.2447C7.68304 11.3606 6.23241 9.81703 5.40563 7.89487C6.47164 7.32557 6.48004 7.32557 6.58916 7.19214C6.68712 7.08589 6.75842 6.95533 6.79654 6.81238C6.83466 6.66943 6.83839 6.51864 6.8074 6.37377L5.65744 1.09882C5.62525 0.951781 5.55828 0.815837 5.46283 0.703792C5.36738 0.591747 5.24659 0.507286 5.11184 0.458359C4.91582 0.384163 4.7134 0.330533 4.50749 0.298243C4.29533 0.246112 4.07884 0.216316 3.86116 0.20929C2.83712 0.20929 1.85502 0.640395 1.13091 1.40777C0.4068 2.17514 0 3.21592 0 4.30115C0.00444195 7.93286 1.36776 11.4145 3.79099 13.9825C6.21422 16.5505 9.49954 17.9953 12.9265 18C13.4336 18 13.9356 17.8941 14.4041 17.6885C14.8726 17.4829 15.2982 17.1815 15.6568 16.8015C16.0153 16.4215 16.2997 15.9705 16.4937 15.474C16.6878 14.9776 16.7877 14.4455 16.7877 13.9081C16.7879 13.6817 16.7711 13.4556 16.7373 13.2321C16.702 13.0111 16.6487 12.7939 16.5778 12.5827ZM12.9265 16.2209C9.9441 16.2186 7.08448 14.962 4.97561 12.7271C2.86673 10.4922 1.68099 7.46175 1.67877 4.30115C1.68098 3.68848 1.91162 3.10157 2.32042 2.66835C2.72922 2.23512 3.28304 1.9907 3.86116 1.98836H4.13816L5.0363 6.1158L4.58303 6.36487C3.86116 6.76516 3.29038 7.08539 3.59256 7.77923C4.08463 9.25548 4.88082 10.597 5.9233 11.7064C6.96579 12.8158 8.22837 13.6652 9.61933 14.1928C10.3244 14.4952 10.6014 13.9348 10.9791 13.1609L11.2226 12.6717L15.1089 13.6146V13.9081C15.1067 14.5208 14.876 15.1077 14.4672 15.5409C14.0584 15.9742 13.5046 16.2186 12.9265 16.2209Z" fill="#E2E2E2"/>
</svg>
