<svg width="18" height="18" viewBox="0 0 18 18" fill="none" xmlns="http://www.w3.org/2000/svg">
<path d="M16.9596 9.67237L17.9918 3.99617C18.0051 3.92277 18.0022 3.84733 17.9832 3.7752C17.9641 3.70306 17.9295 3.63598 17.8817 3.57871C17.8339 3.52143 17.7741 3.47535 17.7065 3.44373C17.6389 3.41211 17.5652 3.39572 17.4906 3.39572H3.65163L3.21156 0.97593C3.16188 0.702031 3.01757 0.454275 2.80383 0.275907C2.59008 0.0975394 2.32048 -0.000111158 2.04207 9.49575e-08H0.509435C0.374324 9.49575e-08 0.244747 0.0536644 0.14921 0.149188C0.0536724 0.244711 0 0.374268 0 0.509358C0 0.644448 0.0536724 0.774006 0.14921 0.869529C0.244747 0.965052 0.374324 1.01872 0.509435 1.01872H2.04198C2.08178 1.01866 2.12032 1.03259 2.15088 1.05807C2.18144 1.08355 2.20207 1.11896 2.20916 1.15811L4.55766 14.0736C4.22559 14.3411 3.97813 14.6991 3.84518 15.1043C3.71224 15.5095 3.69951 15.9445 3.80852 16.3567C3.91753 16.769 4.14362 17.1408 4.45947 17.4274C4.77532 17.7139 5.16741 17.9028 5.58835 17.9713C6.00929 18.0398 6.44106 17.985 6.83149 17.8134C7.22192 17.6418 7.55429 17.3608 7.78844 17.0044C8.02258 16.648 8.14848 16.2315 8.15092 15.805C8.15335 15.3786 8.03222 14.9607 7.80216 14.6016H12.9148C12.6511 15.0145 12.5323 15.5035 12.5772 15.9914C12.6221 16.4792 12.8282 16.9383 13.1629 17.2961C13.4976 17.654 13.9419 17.8903 14.4257 17.9677C14.9096 18.0452 15.4055 17.9594 15.8352 17.7239C16.2649 17.4884 16.604 17.1165 16.7989 16.6671C16.9939 16.2176 17.0337 15.716 16.912 15.2414C16.7904 14.7668 16.5142 14.3461 16.127 14.0459C15.7398 13.7456 15.2636 13.5827 14.7736 13.5829H5.5041L5.07193 11.2059H15.1219C15.5594 11.2061 15.983 11.0526 16.3189 10.7723C16.6548 10.4921 16.8815 10.1028 16.9596 9.67237ZM7.13208 15.7901C7.13208 16.0252 7.06237 16.2549 6.93176 16.4504C6.80114 16.6458 6.6155 16.7982 6.39829 16.8881C6.18109 16.9781 5.94209 17.0016 5.7115 16.9558C5.48092 16.9099 5.26912 16.7967 5.10288 16.6305C4.93664 16.4643 4.82343 16.2525 4.77756 16.022C4.7317 15.7914 4.75524 15.5525 4.84521 15.3353C4.93517 15.1181 5.08753 14.9325 5.28301 14.8019C5.47849 14.6713 5.70831 14.6016 5.9434 14.6016C6.25855 14.602 6.56069 14.7273 6.78353 14.9501C7.00637 15.1729 7.13173 15.475 7.13208 15.7901ZM15.9623 15.7901C15.9623 16.0252 15.8926 16.2549 15.762 16.4504C15.6313 16.6458 15.4457 16.7982 15.2285 16.8881C15.0113 16.9781 14.7723 17.0016 14.5417 16.9558C14.3111 16.9099 14.0993 16.7967 13.9331 16.6305C13.7668 16.4643 13.6536 16.2525 13.6078 16.022C13.5619 15.7914 13.5854 15.5525 13.6754 15.3353C13.7654 15.1181 13.9177 14.9325 14.1132 14.8019C14.3087 14.6713 14.5385 14.6016 14.7736 14.6016C15.0888 14.602 15.3909 14.7273 15.6137 14.9501C15.8366 15.1729 15.9619 15.475 15.9623 15.7901ZM3.83689 4.41444H16.8801L15.9572 9.49019C15.9217 9.68581 15.8186 9.86275 15.666 9.99014C15.5133 10.1175 15.3207 10.1873 15.1219 10.1872H4.88658L3.83689 4.41444Z" fill="#301D58"/>
</svg>
