<svg width="23" height="18" viewBox="0 0 23 18" fill="none" xmlns="http://www.w3.org/2000/svg">
<path d="M21.3571 0H1.64286C1.20714 0 0.789277 0.189642 0.481182 0.527208C0.173086 0.864773 0 1.32261 0 1.8V16.2C0 16.6774 0.173086 17.1352 0.481182 17.4728C0.789277 17.8104 1.20714 18 1.64286 18H21.3571C21.7929 18 22.2107 17.8104 22.5188 17.4728C22.8269 17.1352 23 16.6774 23 16.2V1.8C23 1.32261 22.8269 0.864773 22.5188 0.527208C22.2107 0.189642 21.7929 0 21.3571 0ZM19.55 1.8L11.5 7.902L3.45 1.8H19.55ZM1.64286 16.2V2.619L11.0318 9.738C11.1693 9.84251 11.3326 9.89852 11.5 9.89852C11.6674 9.89852 11.8307 9.84251 11.9682 9.738L21.3571 2.619V16.2H1.64286Z" fill="#E2E2E2"/>
</svg>
