<svg width="14" height="15" viewBox="0 0 14 15" fill="none" xmlns="http://www.w3.org/2000/svg">
<path d="M9.81713 1.50413L10.8839 2.57087L9.28008 4.15996C8.99316 4.44688 8.99316 4.91772 9.28008 5.20464C9.567 5.49156 10.0378 5.49156 10.3248 5.20464L11.9138 3.60084L12.9806 4.66759C13.0325 4.71843 13.0982 4.75277 13.1696 4.76631C13.2409 4.77984 13.3147 4.77194 13.3815 4.74362C13.4484 4.7153 13.5054 4.66781 13.5453 4.60715C13.5853 4.54649 13.6064 4.47536 13.6059 4.40274V1.24663C13.6059 1.04064 13.4441 0.878791 13.2381 0.878791H10.082C10.0094 0.878364 9.93823 0.899444 9.87757 0.939374C9.81691 0.979305 9.76943 1.0363 9.7411 1.10317C9.71278 1.17005 9.70489 1.24381 9.71842 1.31516C9.73195 1.38651 9.76629 1.45226 9.81713 1.50413ZM0.988867 4.66759L2.05562 3.60084L3.6447 5.20464C3.93162 5.49156 4.40246 5.49156 4.68938 5.20464C4.9763 4.91772 4.9763 4.44688 4.68938 4.15996L3.08558 2.57087L4.15233 1.50413C4.20317 1.45226 4.23752 1.38651 4.25105 1.31516C4.26458 1.24381 4.25668 1.17005 4.22836 1.10317C4.20004 1.0363 4.15255 0.979305 4.09189 0.939374C4.03123 0.899444 3.9601 0.878364 3.88748 0.878791H0.731376C0.525383 0.878791 0.363532 1.04064 0.363532 1.24663V4.40274C0.363532 4.7338 0.760804 4.89565 0.988867 4.66759ZM4.15233 13.4959L3.08558 12.4291L4.68938 10.84C4.9763 10.5531 4.9763 10.0823 4.68938 9.79534C4.40246 9.50842 3.93162 9.50842 3.6447 9.79534L2.05562 11.3991L0.988867 10.3324C0.937004 10.2816 0.871253 10.2472 0.799901 10.2337C0.728548 10.2201 0.654787 10.228 0.587913 10.2564C0.521039 10.2847 0.464046 10.3322 0.424116 10.3928C0.384185 10.4535 0.363105 10.5246 0.363532 10.5972V13.7533C0.363532 13.9593 0.525383 14.1212 0.731376 14.1212H3.88748C3.9601 14.1216 4.03123 14.1005 4.09189 14.0606C4.15255 14.0207 4.20004 13.9637 4.22836 13.8968C4.25668 13.8299 4.26458 13.7562 4.25105 13.6848C4.23752 13.6135 4.20317 13.5477 4.15233 13.4959ZM12.9806 10.3324L11.9138 11.3991L10.3248 9.79534C10.0378 9.50842 9.567 9.50842 9.28008 9.79534C8.99316 10.0823 8.99316 10.5531 9.28008 10.84L10.8839 12.4291L9.81713 13.4959C9.76629 13.5477 9.73195 13.6135 9.71842 13.6848C9.70489 13.7562 9.71278 13.8299 9.7411 13.8968C9.76943 13.9637 9.81691 14.0207 9.87757 14.0606C9.93823 14.1005 10.0094 14.1216 10.082 14.1212H13.2381C13.4441 14.1212 13.6059 13.9593 13.6059 13.7533V10.5972C13.6064 10.5246 13.5853 10.4535 13.5453 10.3928C13.5054 10.3322 13.4484 10.2847 13.3815 10.2564C13.3147 10.228 13.2409 10.2201 13.1696 10.2337C13.0982 10.2472 13.0325 10.2816 12.9806 10.3324Z" fill="white"/>
</svg>
