<svg width="25" height="25" viewBox="0 0 25 25" fill="none" xmlns="http://www.w3.org/2000/svg">
<path d="M23.0282 24.3735C23.7711 24.3735 24.3734 23.7712 24.3734 23.0283V1.3452C24.3734 0.602195 23.7711 0 23.0282 0H1.3452C0.6021 0 0 0.602195 0 1.3452V23.0283C0 23.7712 0.6021 24.3735 1.3452 24.3735H23.0282Z" fill="#395185"/>
<path d="M16.8172 24.3734V14.9347H19.9854L20.4598 11.2563H16.8172V8.90773C16.8172 7.84273 17.113 7.11695 18.6402 7.11695L20.5881 7.11609V3.82616C20.2511 3.78131 19.0949 3.68115 17.7498 3.68115C14.9413 3.68115 13.0186 5.39539 13.0186 8.54356V11.2563H9.84229V14.9347H13.0186V24.3734H16.8172Z" fill="white"/>
</svg>
