<svg width="15" height="15" viewBox="0 0 15 15" fill="none" xmlns="http://www.w3.org/2000/svg">
<path d="M7.68182 14.1212C7.58075 14.1209 7.48262 14.087 7.40277 14.0248C4.8593 12.0428 3.10723 10.3361 1.88124 8.65233C0.316724 6.50057 -0.0400946 4.51397 0.819929 2.7476C1.43293 1.48591 3.19414 0.453616 5.25271 1.05464C6.23421 1.33897 7.09055 1.94874 7.68182 2.78431C8.2731 1.94874 9.12943 1.33897 10.1109 1.05464C12.1649 0.462792 13.9307 1.48591 14.5437 2.7476C15.4037 4.51397 15.0469 6.50057 13.4824 8.65233C12.2564 10.3361 10.5043 12.0428 7.96087 14.0248C7.88102 14.087 7.7829 14.1209 7.68182 14.1212ZM4.08162 1.80248C3.59179 1.78336 3.10602 1.89839 2.67646 2.13522C2.24689 2.37205 1.88974 2.72175 1.64336 3.14676C0.934294 4.60573 1.25452 6.22988 2.62232 8.10636C4.07593 9.98678 5.77806 11.6599 7.68182 13.0797C9.58528 11.6613 11.2874 9.98975 12.7413 8.11095C14.1137 6.22988 14.4293 4.60573 13.7203 3.15135C13.2628 2.23375 11.8904 1.50426 10.3625 1.93553C9.87262 2.08074 9.41844 2.32721 9.02923 2.65909C8.64002 2.99097 8.3244 3.40089 8.10268 3.86248C8.06822 3.94663 8.00959 4.0186 7.93424 4.06925C7.8589 4.11991 7.77024 4.14695 7.67954 4.14695C7.58883 4.14695 7.50017 4.11991 7.42483 4.06925C7.34948 4.0186 7.29085 3.94663 7.25638 3.86248C7.03634 3.39973 6.72126 2.98885 6.33181 2.65677C5.94236 2.32469 5.48732 2.07891 4.99653 1.93553C4.69917 1.84891 4.39126 1.80413 4.08162 1.80248Z" fill="white"/>
</svg>
