<svg width="40" height="55" viewBox="0 0 40 55" fill="none" xmlns="http://www.w3.org/2000/svg">
<path d="M40 19.25C40 16.7221 39.4827 14.2189 38.4776 11.8833C37.4725 9.54783 35.9993 7.42572 34.1421 5.63819C32.285 3.85067 30.0802 2.43272 27.6537 1.46532C25.2272 0.497916 22.6264 0 20 0C17.3736 0 14.7728 0.497916 12.3463 1.46532C9.91982 2.43272 7.71504 3.85067 5.85786 5.63819C4.00069 7.42572 2.5275 9.54783 1.52241 11.8833C0.517315 14.2189 -3.9137e-08 16.7221 0 19.25C0 23.0642 1.16857 26.6118 3.15714 29.6038H3.13429L20 55L36.8657 29.6038H36.8457C38.9054 26.5143 40.0002 22.9207 40 19.25ZM20 27.5C17.7267 27.5 15.5465 26.6308 13.9391 25.0836C12.3316 23.5365 11.4286 21.438 11.4286 19.25C11.4286 17.062 12.3316 14.9635 13.9391 13.4164C15.5465 11.8692 17.7267 11 20 11C22.2733 11 24.4535 11.8692 26.0609 13.4164C27.6684 14.9635 28.5714 17.062 28.5714 19.25C28.5714 21.438 27.6684 23.5365 26.0609 25.0836C24.4535 26.6308 22.2733 27.5 20 27.5Z" fill="#444444"/>
</svg>
