<svg width="46" height="44" viewBox="0 0 46 44" fill="none" xmlns="http://www.w3.org/2000/svg">
<path d="M30.6686 31.2705L34.6297 27.4801C35.1632 26.976 35.8382 26.6308 36.5727 26.4867C37.3072 26.3425 38.0697 26.4055 38.7676 26.6679L43.5951 28.5123C44.3003 28.7863 44.905 29.2538 45.333 29.8561C45.7609 30.4583 45.993 31.1683 46 31.8966V40.3572C45.9959 40.8526 45.8871 41.3421 45.6801 41.7962C45.473 42.2503 45.1721 42.6597 44.7955 42.9996C44.4188 43.3395 43.9741 43.6029 43.4882 43.774C43.0023 43.9451 42.4853 44.0204 41.9682 43.9953C8.14016 41.9816 1.31443 14.5692 0.0235496 4.07809C-0.0363738 3.5629 0.0183766 3.0414 0.184199 2.54792C0.350021 2.05443 0.623157 1.60013 0.985637 1.21491C1.34812 0.829683 1.79173 0.522267 2.28728 0.312881C2.78284 0.103496 3.31911 -0.00311208 3.86082 6.91554e-05H12.4018C13.164 0.00222794 13.9081 0.222528 14.5383 0.632634C15.1686 1.04274 15.6562 1.6239 15.9385 2.30136L17.8659 6.92085C18.1493 7.58597 18.2216 8.31625 18.0738 9.02046C17.926 9.72467 17.5646 10.3716 17.0348 10.8804L13.0738 14.6708C13.0738 14.6708 15.3549 29.443 30.6686 31.2705Z" fill="#444444"/>
</svg>
