<svg width="17" height="15" viewBox="0 0 17 15" fill="none" xmlns="http://www.w3.org/2000/svg">
<path d="M0.948554 0.878812C0.769308 0.878812 0.597403 0.948571 0.470657 1.07274C0.34391 1.19691 0.272705 1.36533 0.272705 1.54093C0.272705 1.71654 0.34391 1.88495 0.470657 2.00912C0.597403 2.13329 0.769308 2.20305 0.948554 2.20305H2.44894L4.22237 9.1553C4.37308 9.74459 4.91173 10.1485 5.53148 10.1485H13.9593C14.5696 10.1485 15.088 9.75121 15.2482 9.17517L17 2.86517H15.5847L13.9586 8.82424H5.53081L3.75806 1.87199C3.68483 1.58677 3.51602 1.33387 3.27866 1.1538C3.04131 0.973726 2.74914 0.876895 2.44894 0.878812H0.948554ZM13.1138 10.1485C12.0021 10.1485 11.0863 11.0457 11.0863 12.1348C11.0863 13.224 12.0021 14.1212 13.1138 14.1212C14.2256 14.1212 15.1414 13.224 15.1414 12.1348C15.1414 11.0457 14.2256 10.1485 13.1138 10.1485ZM7.03119 10.1485C5.91942 10.1485 5.00365 11.0457 5.00365 12.1348C5.00365 13.224 5.91942 14.1212 7.03119 14.1212C8.14296 14.1212 9.05874 13.224 9.05874 12.1348C9.05874 11.0457 8.14296 10.1485 7.03119 10.1485ZM9.05874 0.878812V4.18941H7.03119L9.73459 6.83788L12.438 4.18941H10.4104V0.878812H9.05874ZM7.03119 11.4727C7.41237 11.4727 7.70704 11.7614 7.70704 12.1348C7.70704 12.5083 7.41237 12.797 7.03119 12.797C6.65001 12.797 6.35534 12.5083 6.35534 12.1348C6.35534 11.7614 6.65001 11.4727 7.03119 11.4727ZM13.1138 11.4727C13.495 11.4727 13.7897 11.7614 13.7897 12.1348C13.7897 12.5083 13.495 12.797 13.1138 12.797C12.7327 12.797 12.438 12.5083 12.438 12.1348C12.438 11.7614 12.7327 11.4727 13.1138 11.4727Z" fill="white"/>
</svg>
