<svg width="24" height="25" viewBox="0 0 24 25" fill="none" xmlns="http://www.w3.org/2000/svg">
<path d="M6.81 0.228125C6.95056 0.0820798 7.14097 4.39359e-05 7.3395 0L16.6605 0C16.859 4.39359e-05 17.0494 0.0820798 17.19 0.228125L23.781 7.09375C23.9212 7.24016 24 7.43851 24 7.64531V17.3547C24 17.5615 23.9212 17.7598 23.781 17.9062L17.19 24.7719C17.0494 24.9179 16.859 25 16.6605 25H7.3395C7.14097 25 6.95056 24.9179 6.81 24.7719L0.219 17.9062C0.0787966 17.7598 4.21785e-05 17.5615 0 17.3547L0 7.64531C4.21785e-05 7.43851 0.0787966 7.24016 0.219 7.09375L6.81 0.228125ZM7.65 1.5625L1.5 7.96875V17.0312L7.65 23.4375H16.35L22.5 17.0312V7.96875L16.35 1.5625H7.65Z" fill="black"/>
<path d="M6.96888 7.25937C7.03854 7.18661 7.12131 7.12889 7.21242 7.0895C7.30354 7.05012 7.40122 7.02985 7.49988 7.02985C7.59853 7.02985 7.69621 7.05012 7.78733 7.0895C7.87844 7.12889 7.96121 7.18661 8.03088 7.25937L11.9999 11.3953L15.9689 7.25937C16.0386 7.18673 16.1214 7.12911 16.2125 7.0898C16.3036 7.05049 16.4013 7.03026 16.4999 7.03026C16.5985 7.03026 16.6961 7.05049 16.7873 7.0898C16.8784 7.12911 16.9611 7.18673 17.0309 7.25937C17.1006 7.332 17.1559 7.41824 17.1937 7.51314C17.2314 7.60805 17.2508 7.70977 17.2508 7.81249C17.2508 7.91522 17.2314 8.01694 17.1937 8.11184C17.1559 8.20675 17.1006 8.29298 17.0309 8.36562L13.0604 12.5L17.0309 16.6344C17.1006 16.707 17.1559 16.7932 17.1937 16.8881C17.2314 16.983 17.2508 17.0848 17.2508 17.1875C17.2508 17.2902 17.2314 17.3919 17.1937 17.4868C17.1559 17.5817 17.1006 17.668 17.0309 17.7406C16.9611 17.8133 16.8784 17.8709 16.7873 17.9102C16.6961 17.9495 16.5985 17.9697 16.4999 17.9697C16.4013 17.9697 16.3036 17.9495 16.2125 17.9102C16.1214 17.8709 16.0386 17.8133 15.9689 17.7406L11.9999 13.6047L8.03088 17.7406C7.96114 17.8133 7.87836 17.8709 7.78725 17.9102C7.69614 17.9495 7.59849 17.9697 7.49988 17.9697C7.40126 17.9697 7.30361 17.9495 7.2125 17.9102C7.12139 17.8709 7.03861 17.8133 6.96888 17.7406C6.89914 17.668 6.84383 17.5817 6.80609 17.4868C6.76835 17.3919 6.74893 17.2902 6.74893 17.1875C6.74893 17.0848 6.76835 16.983 6.80609 16.8881C6.84383 16.7932 6.89914 16.707 6.96888 16.6344L10.9394 12.5L6.96888 8.36562C6.89903 8.29305 6.84362 8.20683 6.80581 8.11192C6.768 8.01701 6.74854 7.91525 6.74854 7.81249C6.74854 7.70973 6.768 7.60798 6.80581 7.51306C6.84362 7.41815 6.89903 7.33194 6.96888 7.25937Z" fill="black"/>
</svg>
